# Blender 3.1.2
# www.blender.org
mtllib boss.mtl
o 立方体
v -2.257966 0.000000 -1.000000
v 2.341990 0.000000 -1.000000
v -3.029107 0.000000 0.000000
v 2.954317 0.000000 -0.000000
v -0.000000 0.000000 -2.990613
v -0.000000 -2.253442 -1.000000
v -0.000000 2.524987 -1.000000
v 0.000000 -3.101555 0.000000
v 0.001382 3.338713 0.017336
v 0.840177 -0.716342 -0.000000
v 1.000000 1.000000 -0.000000
v -0.747787 -0.517879 0.000000
v -1.000000 1.000000 0.000000
v 1.000000 1.000000 -1.000000
v 1.000000 -1.000000 -1.000000
v -1.000000 1.000000 -1.000000
v -1.000000 -1.000000 -1.000000
v 1.670634 0.500269 -1.000000
v -0.000000 1.263173 -1.994771
v 1.670634 0.500269 -0.000000
v -1.628645 0.500269 0.000000
v -1.628645 0.500269 -1.000000
v -0.000000 -1.126721 -1.995306
v 1.670995 -0.500000 -0.000000
v -1.628983 -0.500000 -1.000000
v -1.628983 -0.500000 0.000000
v 1.670995 -0.500000 -1.000000
v -1.128983 0.000000 -1.995306
v -0.500000 1.762493 0.000000
v -0.500000 1.762493 -1.000000
v -0.500000 -1.626721 0.000000
v -0.500000 -1.626721 -1.000000
v -0.365275 0.881721 -1.317715
v -0.814492 -0.573120 -1.301508
v 1.170995 0.000000 -1.995306
v 0.500000 -1.626721 -1.000000
v 0.500000 -1.626721 -0.000000
v 0.500000 1.762493 -0.000000
v 0.500000 1.762493 -1.000000
v 0.769833 0.881721 -1.338629
v 0.835497 -0.813360 -1.497653
v 0.250000 -1.940081 -1.000000
v 0.250000 -1.940081 -0.000000
v 0.250000 2.143740 -0.000000
v 0.585497 0.000000 -2.492960
v 0.250000 2.143740 -1.000000
v 0.246460 0.924542 -1.415327
v 0.417749 -0.723471 -1.487699
v -2.257966 0.000000 1.000000
v 2.341990 0.000000 1.000000
v 0.000000 0.000000 2.990613
v 0.000000 -2.253442 1.000000
v 0.000000 2.524987 1.000000
v 0.001382 3.338713 -0.017336
v 1.000000 1.000000 1.000000
v 1.000000 -1.000000 1.000000
v -1.000000 1.000000 1.000000
v -1.000000 -1.000000 1.000000
v 1.670634 0.500269 1.000000
v 0.000000 1.263173 1.994771
v -1.628645 0.500269 1.000000
v 0.000000 -1.126721 1.995306
v -1.628983 -0.500000 1.000000
v 1.670995 -0.500000 1.000000
v -1.128983 0.000000 1.995306
v -0.500000 1.762493 1.000000
v -0.500000 -1.626721 1.000000
v -0.365275 0.881721 1.317715
v -0.814492 -0.573120 1.301508
v 1.170995 0.000000 1.995306
v 0.500000 -1.626721 1.000000
v 0.500000 1.762493 1.000000
v 0.769833 0.881721 1.338629
v 0.835497 -0.813360 1.497653
v 0.250000 -1.940081 1.000000
v 0.585497 0.000000 2.492960
v 0.250000 2.143740 1.000000
v 0.246460 0.924542 1.415327
v 0.417749 -0.723471 1.487699
vn 0.9653 0.2032 -0.1639
vn 0.5975 0.8019 -0.0000
vn -0.6223 -0.7828 -0.0000
vn 0.7817 -0.6236 -0.0000
vn -0.6829 -0.6843 -0.2557
vn 0.5975 -0.8019 -0.0000
vn -0.8362 0.5484 -0.0000
vn -0.6223 0.7828 -0.0000
vn 0.4927 0.6612 -0.5658
vn 0.5653 -0.5875 -0.5791
vn -0.7817 -0.6236 -0.0000
vn -0.8868 0.0307 -0.4611
vn -0.5692 0.5090 -0.6457
vn 0.4888 0.6560 -0.5751
vn -0.3256 0.9115 -0.2511
vn 0.3545 0.9095 -0.2170
vn 0.7013 -0.5595 -0.4417
vn 0.2404 -0.9231 0.3003
vn -0.6386 -0.5095 -0.5767
vn -0.0182 -0.8988 0.4379
vn -0.4622 -0.3688 -0.8065
vn -0.5084 0.6395 -0.5767
vn -0.3397 0.4274 -0.8378
vn -0.9252 0.2969 -0.2362
vn -0.2706 -0.7988 -0.5372
vn 0.4797 -0.3827 -0.7896
vn 0.4301 0.7476 -0.5061
vn -0.1240 -0.4802 -0.8684
vn 0.1648 0.3975 -0.9027
vn 0.8362 0.5484 -0.0000
vn 0.9362 0.1109 -0.3334
vn 0.8112 -0.5303 -0.2463
vn 0.5552 0.5149 -0.6532
vn 0.6386 -0.5095 -0.5767
vn -0.3255 -0.9116 0.2510
vn -0.6829 -0.6843 0.2557
vn 0.6658 0.4366 0.6050
vn 0.5653 -0.5875 0.5791
vn -0.8868 0.0307 0.4611
vn -0.7453 0.6662 0.0268
vn 0.4927 0.6528 0.5754
vn -0.3256 0.9115 0.2511
vn 0.7013 -0.5595 0.4417
vn -0.7358 -0.3800 0.5605
vn -0.0182 -0.8988 -0.4379
vn -0.3466 -0.4360 0.8305
vn -0.5084 0.6395 0.5767
vn -0.3397 0.4274 0.8378
vn -0.9138 -0.3098 0.2627
vn -0.9252 0.2969 0.2362
vn -0.5084 -0.6395 0.5767
vn 0.4797 -0.3827 0.7896
vn 0.4301 0.7476 0.5061
vn 0.4128 -0.7705 0.4857
vn 0.4399 0.2884 0.8505
vn 0.9090 -0.3397 -0.2416
vn 0.6865 0.4502 0.5710
vn 0.5373 -0.5584 0.6321
vn 0.5552 0.5149 0.6532
vn 0.6386 -0.5095 0.5767
vn -0.3255 -0.9116 -0.2510
vn 0.9624 -0.2072 -0.1757
vn -0.5513 -0.5524 -0.6253
vn 0.3544 -0.9096 -0.2170
vn 0.6658 0.4366 -0.6050
vn 0.4888 -0.6560 -0.5751
vn -0.9208 -0.2058 0.3314
vn -0.6865 0.4502 -0.5710
vn -0.7453 0.6662 -0.0268
vn 0.4927 0.6528 -0.5754
vn 0.5348 -0.7177 -0.4460
vn -0.7358 -0.3800 -0.5605
vn -0.3466 -0.4360 -0.8305
vn -0.3653 0.7452 -0.5579
vn -0.3936 0.2581 -0.8823
vn -0.9138 -0.3098 -0.2627
vn -0.5084 -0.6395 -0.5767
vn 0.1626 0.6359 -0.7545
vn 0.4128 -0.7705 -0.4857
vn 0.4399 0.2884 -0.8505
vn 0.9090 -0.3397 0.2416
vn 0.6865 0.4502 -0.5710
vn 0.5373 -0.5584 -0.6321
vn 0.8842 0.4536 -0.1110
vn 0.8396 -0.2979 -0.4543
vn 0.9653 0.2032 0.1639
vn 0.9624 -0.2072 0.1757
vn -0.5513 -0.5524 0.6253
vn 0.3544 -0.9096 0.2170
vn 0.4927 0.6612 0.5658
vn 0.4888 -0.6560 0.5751
vn -0.9208 -0.2058 -0.3314
vn -0.6865 0.4502 0.5710
vn -0.5692 0.5090 0.6457
vn 0.4888 0.6560 0.5751
vn 0.3545 0.9095 0.2170
vn 0.5348 -0.7177 0.4460
vn 0.2404 -0.9231 -0.3003
vn -0.6386 -0.5095 0.5767
vn -0.4622 -0.3688 0.8065
vn -0.3653 0.7452 0.5579
vn -0.3936 0.2581 0.8823
vn -0.2706 -0.7988 0.5372
vn -0.1240 -0.4802 0.8684
vn 0.1626 0.6359 0.7545
vn 0.1648 0.3975 0.9027
vn 0.9362 0.1109 0.3334
vn 0.8112 -0.5303 0.2463
vn 0.8842 0.4536 0.1110
vn 0.8396 -0.2979 0.4543
vt 0.376621 0.685742
vt 0.555189 0.052882
vt 0.400598 0.667665
vt 0.179136 0.903667
vt 1.000000 0.701558
vt 0.168463 0.050415
vt 0.364888 0.799414
vt 0.077969 0.937222
vt 0.460252 0.093159
vt 0.077969 0.865838
vt 0.399123 0.599248
vt 0.080762 0.096098
vt 0.376621 0.405391
vt 0.385640 0.000000
vt 0.774361 0.000000
vt 1.000000 0.415038
vt 0.659018 0.827159
vt 0.745953 0.534771
vt 0.332823 0.898684
vt 0.774361 0.251036
vt 0.102240 0.528389
vt 0.399123 0.269837
vt 0.261169 0.799414
vt 0.758626 0.362920
vt 0.735051 0.817623
vt 0.379185 0.382219
vt 0.000000 0.588968
vt 0.581798 0.655787
vt 0.805431 0.295991
vt 0.211060 0.220047
vt 0.453087 0.862861
vt 0.399123 0.909254
vt 0.584216 0.205235
vt 0.219561 0.652211
vt 0.275535 0.152270
vt 0.876709 0.607299
vt 0.537492 0.739733
vt 0.256205 0.596218
vt 0.506254 0.946468
vt 0.815096 0.393718
vt 0.663138 0.150479
vt 0.222028 0.101369
vt 0.239357 0.466923
vt 0.392385 0.134991
vt 0.157553 0.169147
vt 0.077969 0.799414
vt 0.279736 0.696948
vt 0.316380 0.640956
vt 0.774361 0.125518
vt 0.872976 0.474904
vt 0.179136 0.799414
vt 0.512513 0.637892
vt 0.774361 0.230390
vt 0.609164 0.101681
vt 0.506254 0.827159
vt 0.453087 0.946852
vt 0.546428 0.171071
vt 0.938354 0.654428
vt 0.469045 0.703699
vt 0.376621 0.545566
vt 0.664775 0.026441
vt 0.249027 0.940718
vt 0.142579 0.618296
vt 0.179223 0.562304
vt 0.656014 0.270148
vt 0.815096 0.341119
vt 0.718750 0.200758
vt 0.256778 0.530412
vt 0.774361 0.390327
vt 0.666143 0.115173
vt 0.277051 0.025207
vt 0.937964 0.192717
vt 1.000000 0.558298
vt 0.598255 0.783446
vt 0.811331 0.571035
vt 0.878421 0.341119
vt 0.641722 0.717639
vt 0.272854 0.278830
vt 0.937964 0.000000
vt 0.376620 0.475645
vt 0.337329 0.211053
vt 0.299454 0.131303
vt 0.929035 0.085167
vt 0.905665 0.564667
vt 0.778642 0.552903
vt 0.628636 0.805303
vt 0.249027 0.898684
vt 0.672104 0.739496
vt 0.303751 0.308222
vt 1.000000 0.486668
vt 0.331345 0.012604
vt 0.398480 0.488505
vt 0.368226 0.240445
vt 0.891132 0.077585
vt 0.398480 0.405391
vt 0.326656 0.147277
vt 0.897568 0.537781
vt 0.000000 0.862121
vt 0.891132 0.230390
vt 0.429717 0.191662
vt 0.303333 0.797726
vt 0.487533 0.536051
vt 0.039513 0.185969
vt 0.745953 0.415038
vt 0.000000 0.405391
vt 0.399123 0.415038
vt 0.745953 0.838564
vt 0.745953 0.695545
vt 0.648889 0.389816
vt 0.179136 0.894099
vt 0.270173 0.405391
vt 0.937420 0.380527
vt 0.028953 0.640374
vt 0.249027 0.799414
vt 0.381420 0.379869
vt 0.146585 0.287824
vt 0.878421 0.236726
vt 0.624427 0.608119
vt 0.182917 0.708203
vt 0.877751 0.081059
vt 0.453087 0.827159
vt 0.537667 0.289260
vt 0.093078 0.236924
vt 0.549182 0.827159
vt 0.376874 0.957606
vt 0.937420 0.230390
vt 0.807749 0.701558
vt 0.135159 0.405391
vt 0.243093 0.752941
vt 0.884438 0.155685
vt 0.524006 0.402427
vt 0.745953 0.555292
vt 0.483692 0.240461
vt 0.555980 0.572085
vt 0.376874 0.799414
vt 0.882177 0.838564
vt 0.774361 0.160236
vt 0.414420 0.303350
vt 0.549182 0.940928
vt 0.878421 0.323354
vt 0.891132 0.000000
vt 0.105935 0.674289
vt 0.593278 0.339538
vt 0.506254 0.874399
vt 0.332823 0.905586
vt 0.820326 0.046098
vt 0.502841 0.295796
vt 0.019757 0.295680
vt 0.931314 0.701558
vt 0.616743 0.475545
vt 0.685190 0.651832
vt 0.931314 0.897069
vt 0.208379 0.346608
vt 0.126838 0.312760
vt 0.924105 0.810291
vt 0.650966 0.563689
vt 0.715571 0.673689
vt 0.681348 0.445291
vt 0.009878 0.350536
vt 0.924674 0.929115
vt 0.239276 0.375999
vt 0.882177 0.821048
vt 0.144150 0.339131
vt 0.677743 0.560160
s 0
usemtl マテリアル.003
f 44/89/1 7/22/1 9/26/1
f 14/35/2 20/45/2 18/42/2
f 26/57/3 1/2/3 25/54/3
f 43/88/4 6/17/4 42/86/4
f 28/61/5 23/49/5 34/70/5
f 2/3/6 24/52/6 27/59/6
f 30/64/7 13/34/7 29/63/7
f 13/34/8 22/48/8 21/47/8
f 40/82/9 14/35/9 18/42/9
f 35/73/10 27/58/10 41/84/10
f 31/65/11 17/41/11 32/67/11
f 30/64/12 19/43/12 33/68/12
f 28/60/13 19/43/13 5/13/13
f 35/71/14 18/42/14 2/6/14
f 21/47/15 1/1/15 3/7/15
f 2/6/16 20/45/16 4/12/16
f 41/84/17 15/36/17 36/75/17
f 15/37/18 24/52/18 10/28/18
f 32/67/19 23/49/19 6/20/19
f 26/55/20 17/39/20 12/31/20
f 17/40/21 34/69/21 32/66/21
f 22/48/22 28/60/22 1/1/22
f 16/38/23 33/68/23 22/48/23
f 6/20/11 31/65/11 32/67/11
f 7/21/24 29/63/24 9/27/24
f 25/54/25 28/61/25 34/70/25
f 48/97/26 36/75/26 42/85/26
f 47/96/27 35/71/27 45/91/27
f 48/97/28 35/73/28 41/84/28
f 47/94/29 39/79/29 40/83/29
f 15/37/4 37/77/4 36/74/4
f 14/35/30 38/78/30 11/30/30
f 19/44/31 46/93/31 47/96/31
f 23/50/32 45/90/32 48/97/32
f 19/44/33 45/91/33 5/14/33
f 23/50/34 42/85/34 6/18/34
f 37/77/4 42/86/4 36/74/4
f 39/81/30 44/89/30 38/78/30
f 44/89/30 53/111/30 77/161/30
f 20/45/2 55/116/2 59/123/2
f 26/57/35 49/100/35 3/9/35
f 52/108/4 43/88/4 75/157/4
f 62/131/36 65/138/36 69/147/36
f 24/52/6 50/102/6 64/134/6
f 13/34/7 66/142/7 29/63/7
f 61/129/8 13/34/8 21/47/8
f 73/154/37 55/116/37 72/153/37
f 64/134/38 70/150/38 74/156/38
f 58/122/11 31/65/11 67/143/11
f 60/124/39 66/139/39 68/144/39
f 65/135/40 60/125/40 68/145/40
f 70/148/41 59/123/41 73/154/41
f 49/98/42 21/46/42 3/8/42
f 50/103/2 20/45/2 59/123/2
f 56/118/43 74/156/43 71/151/43
f 56/118/6 24/52/6 64/134/6
f 67/143/44 62/131/44 69/147/44
f 58/121/45 26/56/45 12/32/45
f 58/122/46 69/147/46 63/133/46
f 65/137/47 61/130/47 49/99/47
f 68/146/48 57/120/48 61/130/48
f 52/109/49 31/65/49 8/24/49
f 29/62/50 53/110/50 54/114/50
f 63/133/51 65/138/51 49/100/51
f 71/151/52 79/164/52 75/157/52
f 70/148/53 78/163/53 76/159/53
f 79/164/54 70/150/54 76/158/54
f 78/162/55 72/152/55 77/160/55
f 56/117/56 37/76/56 10/29/56
f 38/78/30 55/116/30 11/30/30
f 60/128/57 77/161/57 53/111/57
f 62/132/58 76/158/58 51/104/58
f 76/159/59 60/128/59 51/105/59
f 75/157/60 62/132/60 52/108/60
f 75/157/4 37/77/4 71/151/4
f 44/89/30 72/153/30 38/78/30
f 44/89/30 46/93/30 7/22/30
f 14/35/2 11/30/2 20/45/2
f 26/57/61 3/9/61 1/2/61
f 43/87/62 8/23/62 6/19/62
f 28/61/63 5/15/63 23/49/63
f 2/4/64 4/10/64 24/51/64
f 30/64/7 16/38/7 13/34/7
f 13/34/8 16/38/8 22/48/8
f 40/82/65 39/81/65 14/35/65
f 35/73/66 2/5/66 27/58/66
f 31/65/67 12/33/67 17/41/67
f 30/64/68 7/21/68 19/43/68
f 28/60/69 33/68/69 19/43/69
f 35/71/70 40/82/70 18/42/70
f 21/47/8 22/48/8 1/1/8
f 2/6/2 18/42/2 20/45/2
f 41/84/71 27/58/71 15/36/71
f 15/37/6 27/59/6 24/52/6
f 32/67/72 34/70/72 23/49/72
f 26/57/3 25/54/3 17/41/3
f 17/41/73 25/54/73 34/70/73
f 22/48/74 33/68/74 28/60/74
f 16/38/75 30/64/75 33/68/75
f 6/20/76 8/24/76 31/65/76
f 7/21/7 30/64/7 29/63/7
f 25/54/77 1/2/77 28/61/77
f 48/97/28 41/84/28 36/75/28
f 47/94/78 40/83/78 35/72/78
f 48/97/79 45/90/79 35/73/79
f 47/95/80 46/92/80 39/80/80
f 15/37/81 10/28/81 37/77/81
f 14/35/30 39/81/30 38/78/30
f 19/44/82 7/22/82 46/93/82
f 23/50/83 5/16/83 45/90/83
f 19/44/84 47/96/84 45/91/84
f 23/50/85 48/97/85 42/85/85
f 37/77/4 43/88/4 42/86/4
f 39/81/30 46/93/30 44/89/30
f 44/89/86 54/115/86 53/111/86
f 20/45/2 11/30/2 55/116/2
f 26/57/3 63/133/3 49/100/3
f 52/108/87 8/25/87 43/88/87
f 62/131/88 51/106/88 65/138/88
f 24/52/89 4/11/89 50/102/89
f 13/34/7 57/119/7 66/142/7
f 61/129/8 57/119/8 13/34/8
f 73/154/90 59/123/90 55/116/90
f 64/134/91 50/102/91 70/150/91
f 58/122/92 12/33/92 31/65/92
f 60/126/93 53/112/93 66/140/93
f 65/136/94 51/107/94 60/127/94
f 70/148/95 50/103/95 59/123/95
f 49/101/8 61/129/8 21/47/8
f 50/103/96 4/12/96 20/45/96
f 56/118/97 64/134/97 74/156/97
f 56/117/98 10/29/98 24/53/98
f 67/143/99 52/109/99 62/131/99
f 58/122/3 63/133/3 26/57/3
f 58/122/100 67/143/100 69/147/100
f 65/137/101 68/146/101 61/130/101
f 68/146/102 66/141/102 57/120/102
f 52/109/11 67/143/11 31/65/11
f 29/63/7 66/142/7 53/113/7
f 63/133/103 69/147/103 65/138/103
f 71/151/104 74/156/104 79/164/104
f 70/149/105 73/155/105 78/162/105
f 79/164/104 74/156/104 70/150/104
f 78/162/106 73/155/106 72/152/106
f 56/118/4 71/151/4 37/77/4
f 38/78/30 72/153/30 55/116/30
f 60/128/107 78/163/107 77/161/107
f 62/132/108 79/164/108 76/158/108
f 76/159/109 78/163/109 60/128/109
f 75/157/110 79/164/110 62/132/110
f 75/157/4 43/88/4 37/77/4
f 44/89/30 77/161/30 72/153/30
