# Blender 3.1.2
# www.blender.org
mtllib Ray.mtl
o Cube
v 1.000000 1.000000 0.000000
v 1.000000 -1.000000 0.000000
v 1.000000 1.000000 40.000000
v 1.000000 -1.000000 40.000000
v -1.000000 1.000000 0.000000
v -1.000000 -1.000000 0.000000
v -1.000000 1.000000 40.000000
v -1.000000 -1.000000 40.000000
vn -0.0000 1.0000 -0.0000
vn -0.0000 -0.0000 1.0000
vn -1.0000 -0.0000 -0.0000
vn -0.0000 -1.0000 -0.0000
vn 1.0000 -0.0000 -0.0000
vn -0.0000 -0.0000 -1.0000
vt 0.666667 0.666667
vt 0.000000 0.666667
vt 0.666667 0.333333
vt 0.666667 0.000000
vt 0.000000 0.333333
vt 0.000000 1.000000
vt 0.333333 0.333333
vt 0.333333 0.666667
vt 0.333333 0.000000
vt 0.666667 0.333333
vt 0.333333 0.333333
vt 0.666667 0.333333
vt 0.333333 0.666667
vt 0.333333 0.000000
vt 0.333333 0.333333
vt 0.666667 0.000000
vt 0.333333 1.000000
vt 0.000000 0.333333
vt 1.000000 0.333333
vt 1.000000 0.000000
vt 0.000000 0.000000
vt 0.333333 0.333333
s 0
usemtl Material
f 5/13/1 3/6/1 1/2/1
f 3/7/2 8/21/2 4/9/2
f 7/19/3 6/16/3 8/20/3
f 2/4/4 8/22/4 6/14/4
f 1/1/5 4/11/5 2/3/5
f 5/13/6 2/5/6 6/15/6
f 5/13/1 7/17/1 3/6/1
f 3/7/2 7/18/2 8/21/2
f 7/19/3 5/12/3 6/16/3
f 2/4/4 4/10/4 8/22/4
f 1/1/5 3/8/5 4/11/5
f 5/13/6 1/2/6 2/5/6
